<?xml version="1.0" encoding="utf-8"?>
<svg id="master-artboard" viewBox="0 0 233.60556030273438 225.414306640625" version="1.1" xmlns="http://www.w3.org/2000/svg" x="0px" y="0px" enable-background="new 0 0 1400 980" width="233.60556030273438px" height="225.414306640625px"><path fill="#FFFFFF" d="M950.8,547.4c-60.3,0-109.4,49.1-109.4,109.4c0,60.3,49.1,109.4,109.4,109.4&#10;&#9;&#9;&#9;&#9;c60.3,0,109.4-49.1,109.4-109.4C1060.2,596.5,1011.1,547.4,950.8,547.4z M1007.9,571.1C1007.9,571.1,1007.9,571.2,1007.9,571.1&#10;&#9;&#9;&#9;&#9;c-0.1,0.9-0.4,1.8-1,2.7C1007.4,572.9,1007.8,572,1007.9,571.1z M950.8,759.8c-32.9,0-62.2-15.5-81-39.5&#10;&#9;&#9;&#9;&#9;c-0.1-1.5-1.1-2.9-1.3-4.4c0.1,0,0.2,0.1,0.3,0.2c0.2,0.7,0.2,1.4,0.4,2c1.7-3.3-3.9-7.9,0.4-10c0.3,0.1,0.6,0.3,0.8,0.4&#10;&#9;&#9;&#9;&#9;c0.1-0.1,0.2-0.1,0.3-0.2c0.2,0.1,0.4,0.1,0.6,0.1c0.1-0.1,0.3-0.3,0.4-0.5c0.1-0.7,0.2-1.3,0.3-2c0.4-3.3-1.7-6.5-0.5-9.8&#10;&#9;&#9;&#9;&#9;c0.7-2,2.5-3.7,2.3-6.1c0-0.1,0-0.3,0-0.4c-1-0.3-1.9-0.6-2.8-0.9c0.9,0.3,1.9,0.6,2.8,0.9c-0.1-1-0.1-1-0.2-2.1&#10;&#9;&#9;&#9;&#9;c0-0.5-0.1-0.8-0.4-1.2l-4-4.4c-2.9-2.6-3.9-2.5-4.7-2.4c-0.7-2.2-0.7-2.2-0.9-2.3c-0.1,0-0.1,0.1-0.2,0.1c-0.4-1.3-1.9-2-1.9-2&#10;&#9;&#9;&#9;&#9;c-0.6,0.4-0.6,1.3-1,1.8c-0.2-0.5-0.5-0.7-1.2-0.8c0-0.1-0.1-0.2-0.1-0.2c-0.6-2-0.6-2,0.1-3.5c0.1-0.2,0.1-0.2-0.2-3.4&#10;&#9;&#9;&#9;&#9;c-0.1-0.8-0.1-1.2-0.1-1.5c-0.1-0.7-0.2-0.8-0.4-1.2c-1.3-2.6-1.3-2.6-2-3.5c-0.6-0.9-2-1-2.3-2.2c-0.3-1.5-0.6-3.4-1.6-4.5&#10;&#9;&#9;&#9;&#9;c0.1-1.3-0.7-2.4-0.8-3.6c0.1,0,0.2,0,0.3-0.1c0-0.3-0.1-0.4-0.8-1c-0.1,0.1-0.1,0.3-0.1,0.4c-0.7,0.1-0.9-0.4-2.2-4.7&#10;&#9;&#9;&#9;&#9;c-0.1,0.1-0.1,0.1-0.2,0.9c-0.1,0.1-0.3,0.1-0.4,0.1c-0.5,1-0.2,2-0.4,3c0,0,0-0.1-0.1-0.1c0-0.9,0.1-1.7,0.2-2.6&#10;&#9;&#9;&#9;&#9;c0.4-0.8,0.9-1.6,0.5-2.5c-0.1,0.1-0.2,0.2-0.3,0.2c1.3-12.7,4.8-24.7,10.3-35.6c0.6-0.4,1.2-0.6,1.6-1.3&#10;&#9;&#9;&#9;&#9;c1.2-2.4,1.6-3.1,1.6-3.1c0.7-0.9,1.2-1.9,1.9-2.7c0,0.1,0,0.1-1.9,3.1c0.1,0,1.1-1,1.5-1.9c0.3-0.7,0.4-0.8,0.7-1.2&#10;&#9;&#9;&#9;&#9;c-0.1,0.4-0.3,0.7-0.5,1.1c0.9-0.8,1.4-2,2.4-2.7c0,0,1.3-0.6,1.5,0.2c0.4,0,0.6-1,0.7-1.1c0-0.1,0-0.3,0.6-1&#10;&#9;&#9;&#9;&#9;c0,0,1.4-1.5,1.7-1.4c0.1,0,0.1,0.1,0.3-0.1c-1-1.1-1.8-2.3-2.2-3.4c3.4-4.2,7.1-8.1,11.2-11.8c-0.2,0.1-0.5,0.3-0.6,0.4&#10;&#9;&#9;&#9;&#9;c0.4-1.2,0.7-1.5,6.2-6.1c0.6-0.5,1.1-1.2,1.6-1.8c6.6-5.2,13.8-9.7,21.6-13.2c2.1-0.7,4.1-1.7,6.2-2.4c-0.3,0.2-0.3,0.2-1.4,0.7&#10;&#9;&#9;&#9;&#9;c0.5,0.1,0.5,0.1,3.5-1c-0.3,0.2-0.6,0.4-0.9,0.6c0.1,0,0.3-0.1,0.4-0.1c-0.1,0.1-0.2,0.1-0.3,0.2c0.5-0.1,0.5-0.1,1.4-0.5&#10;&#9;&#9;&#9;&#9;c-0.1,0.1-0.3,0.1-0.4,0.2c1.5-0.1,11.7-3.2,11.8-3.2c0.4-0.1,0.7-0.2,1.1-0.3c-0.3,0-0.6,0-0.9,0c-0.2,0.1-0.3,0.1-0.3,0.1&#10;&#9;&#9;&#9;&#9;s0,0-0.1,0c0,0,0,0-0.1,0c0,0,0,0-0.1,0c0,0,0,0-0.1,0c0,0,0,0-0.1,0c0,0,0,0-0.1,0c0,0,0,0-0.1,0c-0.6,0.1-1.2,0.3-1.8,0.4&#10;&#9;&#9;&#9;&#9;c-0.4,0.1-0.4,0.1-1.2,0.3c-0.5,0-0.5,0-1.7,0.3c0,0,0,0,0,0c0,0,0,0,0,0c0,0,0,0,0,0c0,0,0,0,0,0c0,0,0,0,0,0c0,0,0,0,0,0&#10;&#9;&#9;&#9;&#9;c0,0,0,0,0,0c0,0,0,0,0,0c-1.1,0.3-2.2,0.5-3.3,0.8l-0.1,0l-0.2,0c0.1-0.1,0.1-0.1,0.1-0.1s0,0,0,0s0,0,0,0s0,0,0,0c0,0,0,0,0,0&#10;&#9;&#9;&#9;&#9;c0,0,0,0,0,0c0,0,0,0,0,0s0,0,0,0c0,0,0,0,0,0c0,0,0,0,0,0c0,0,0,0,0,0c0,0,0,0,0,0c0,0,0,0,0,0c0,0,0,0,0,0c0,0,0,0,0,0s0,0,0,0&#10;&#9;&#9;&#9;&#9;c0.5-0.2,0.5-0.2,2.9-0.9c0,0,0,0,0,0c0,0,0,0,0,0c0,0,0,0,0,0c0,0,0,0,0,0c0,0,0,0,0,0c0,0,0,0,0,0c0,0,0,0,0,0c0,0,0,0,0,0&#10;&#9;&#9;&#9;&#9;c0.1,0,0.3-0.1,0.4-0.1c0,0,0,0,0,0c1.3-0.2,2.6-0.7,4-1c-0.1,0-0.1,0-3.2,0.6c0.8-0.3,2.8-0.7,3.2-0.8c0.3-0.1,0.3-0.1,0.3-0.1&#10;&#9;&#9;&#9;&#9;c0,0,0,0,0,0c0,0,0,0,0,0c0,0,0,0,0,0c0,0,0,0,0,0c0,0,0,0,0,0c0,0,0,0,0,0c0,0,0,0,0,0c0.6-0.1,0.6-0.1,1.7-0.4&#10;&#9;&#9;&#9;&#9;c0.8-0.1,1.8-0.2,1.8-0.2c0,0,0,0,0,0c0,0,0,0,0,0s0,0,0,0s0,0,0,0c0,0,0,0,0,0c0,0,0,0,0,0s0,0,0,0c0,0,0,0,0,0l0.2,0l0.2,0&#10;&#9;&#9;&#9;&#9;c1.3-0.3,3.1-0.5,3.1-0.5c0,0,0.1,0,0.1,0s0.1,0,0.1,0c0,0,0.1,0,0.1,0c0,0,0.1,0,0.1,0c0,0,0.1,0,0.1,0c0,0,0.1,0,0.1,0&#10;&#9;&#9;&#9;&#9;s0.1,0,0.1,0c0,0,0.1,0,0.1,0c1.1-0.1,2.1-0.2,3.2-0.4l0.1,0c0.3-0.1,0.6-0.1,0.9-0.1c-0.8,0-1.8,0.1-5,0.4c-0.3,0-0.4,0-0.5,0.1&#10;&#9;&#9;&#9;&#9;c-0.5,0.1-1,0.1-1.6,0.2c-1.7,0.2-3.4,0.7-5.1,1l0,0l0.1,0c-0.3,0-0.3,0-1.3,0.2l-0.1,0c-0.2,0-0.5,0.1-0.7,0.1&#10;&#9;&#9;&#9;&#9;c0.1,0,0.3,0,0.4,0c-0.2,0.1-0.4,0.1-0.6,0.2c-0.4,0.1-0.7,0.1-1.1,0.2l-0.1,0c-0.3,0.1-0.5,0.1-0.8,0.1&#10;&#9;&#9;&#9;&#9;c4.2-1.2,8.5-2.1,12.9-2.7c0.9-0.1,3.1-0.2,5.5-0.3l0.1,0c0,0,0.1,0,0.1,0c0.3,0,0.6,0,0.8,0l0.1,0c0.4,0,0.7,0,1.1,0l0.1,0&#10;&#9;&#9;&#9;&#9;c0.4,0,0.8,0,1.2,0l0.1,0c0.4,0,0.8,0,1.2,0c-0.2,0-0.3,0-0.5,0c0.2,0,0.5,0,0.7,0c0.1,0,0.3,0,0.4,0l0,0c-0.6,0-1.8-0.1-4.2-0.1&#10;&#9;&#9;&#9;&#9;c0,0-0.1,0-0.1,0c0,0-0.1,0-0.1,0c0,0-0.1,0-0.1,0c0,0-0.1,0-0.1,0c0,0-0.1,0-0.1,0c0,0-0.1,0-0.1,0c0,0-0.1,0-0.1,0&#10;&#9;&#9;&#9;&#9;c0,0-0.1,0-0.1,0c-0.2,0-0.3,0-0.5,0l-0.1,0l-0.1,0l-0.1,0l-0.1,0c0,0-0.1,0-0.1,0l-0.1,0l-0.1,0c-0.1,0-0.3,0-0.4,0l-0.1,0&#10;&#9;&#9;&#9;&#9;c-0.6,0-1,0-1.3,0l0.2,0c0.5,0,0.5,0,4.1-0.1l0.1,0l0.1,0l0.1,0l0.1,0l0.1,0l0.1,0c0.3,0,0.6,0,0.8,0c0.2,0,0.3,0,0.5,0&#10;&#9;&#9;&#9;&#9;c0,0,0.1,0,0.1,0c0,0-0.1,0-0.1,0l-0.1,0c-0.1,0-0.3,0-0.4,0c-0.1,0-0.3,0-0.4,0c-0.2,0-0.4,0-0.6,0l-0.1,0l-0.1,0l-0.1,0&#10;&#9;&#9;&#9;&#9;c-0.2,0-0.4,0-0.6,0c0.1,0,0.3,0,0.4,0c-0.3,0-0.6,0-0.9,0c0.2,0,0.3,0,0.5,0c-0.2,0-0.4,0-0.6,0c0.3,0,0.5,0,0.8,0&#10;&#9;&#9;&#9;&#9;c0.6,0,1.2,0,1.9,0l0.1,0c0.1,0,0.3,0,0.4,0l0.2,0l0.1,0c-0.3,0-0.6,0-0.9-0.1c0,0,0,0,0,0c0,0,0,0,0,0c0,0,0,0,0,0s0,0,0,0&#10;&#9;&#9;&#9;&#9;c0,0,0,0,0,0c0,0,0,0,0,0c0,0,0,0,0,0c0,0,0,0,0,0c-0.1,0-0.2,0-0.3,0c0,0-0.4,0-0.7-0.1c0.1,0,0.2,0,0.2,0&#10;&#9;&#9;&#9;&#9;c0.3,0,3.4,0.2,3.4,0.2c-0.8-0.1-1.7-0.2-2.5-0.2c-1.1-0.1-1.4-0.1-1.9-0.1c0,0-0.1,0-0.1,0c0.1,0,0.2,0,0.2,0&#10;&#9;&#9;&#9;&#9;c1.2,0.1,1.3,0.1,3.9,0.3l0.1,0c0.1,0,0.3,0,0.4,0c0.3,0,0.7,0.1,1,0.1c0.2,0,0.4,0,0.6,0c0.1,0,0.2,0,0.4,0l0.1,0&#10;&#9;&#9;&#9;&#9;c0.6,0.1,1.2,0.1,1.6,0.2l0,0c-0.1,0-0.3,0-0.4-0.1l-0.1,0c-2.2-0.3-4.3-0.6-5.9-0.7c2.1-0.1,4.2-0.2,6.3-0.2&#10;&#9;&#9;&#9;&#9;c5.3,0,10.6,0.4,15.7,1.2c-2.9,0-5.8-0.1-8.8-0.1c0.6,0,1.2,0.1,1.8,0.1c0,0,0,0,0,0c0,0,0,0,0,0c0,0,0,0,0,0c0,0,0,0,0,0&#10;&#9;&#9;&#9;&#9;c0,0,0,0,0,0c0,0,0,0,0,0c0,0,0,0,0,0c0,0,0,0,0,0c-0.1,0-0.2,0-0.3,0c0.4,0,0.4,0,1.5,0.1c0,0,0,0,0,0c-0.1,0-0.2,0-0.3,0&#10;&#9;&#9;&#9;&#9;c0.1,0,0.2,0,0.3,0c0.7,0.1,1.3,0.1,2,0.2c0,0,0,0,0,0c2.1,0.2,2.1,0.2,3.4,0.4c-0.2,0-0.2,0-2.2-0.1c0.2,0.1,0.5,0.1,0.8,0.2&#10;&#9;&#9;&#9;&#9;c-0.4,0-0.4,0-2.4-0.2c1.8,0.4,3.7,0.5,5.5,0.9c-4.6-0.4-9.2-1.3-13.8-1.4c0.1,0,0.2,0,0.3,0c-0.7,0-1.5-0.1-2.2-0.1&#10;&#9;&#9;&#9;&#9;c0,0,0.1,0,0.1,0c0.2,0,0.5,0,0.6,0c-0.1,0-0.2,0-0.3,0c1.4,0.1,3.3,0.2,4.4,0.4c5.7,0.6,11.4,1.7,16.8,3.2&#10;&#9;&#9;&#9;&#9;c-5.4-1.5-11-2.6-16.7-3.2c-1.3,0-2.7-0.2-4-0.3c0.8,0.1,1.7,0.2,2.5,0.3c-0.7-0.1-1.8-0.2-3.4-0.4c-0.3,0-0.6-0.1-0.8-0.1&#10;&#9;&#9;&#9;&#9;c0,0,0,0,0,0c0,0,0,0,0,0c-0.1,0-0.1,0-0.2,0c1.7,0.4,7.7,1.9,15,5.6c-2.2-0.2-3.8-1.8-5.7-2.6c-0.2-0.1-0.2-0.1-0.2-0.1&#10;&#9;&#9;&#9;&#9;c0,0,0,0,0,0s0,0,0,0c0,0,0,0,0,0c0,0,0,0,0,0c0,0,0,0,0,0c0,0,0,0,0,0c0,0,0,0,0,0c-0.9,0-1.7-0.5-2.6-0.8c0.6,0.4,1.4,0.7,2,1&#10;&#9;&#9;&#9;&#9;c-0.3-0.1-0.6-0.2-0.9-0.3c0.9,0.5,1.9,0.7,2.8,1.1c0.2,0.1,0.4,0.2,0.6,0.3c-2.3-0.7-4.5-1.9-6.8-2.7c2.3,1,4.4,2.5,6.6,3.8&#10;&#9;&#9;&#9;&#9;c-3.7-2-7-3.7-7.1-3.7c4.2,2.7,8.9,4.6,12.6,8.1c0,0,0,0,0,0c0,0,0,0,0,0c0,0,0,0,0,0c0,0,0,0,0,0c0,0,0,0,0,0c0,0,0,0,0,0&#10;&#9;&#9;&#9;&#9;c0,0,0,0,0,0c0,0,0,0,0,0c-3.9-2-3.9-2-5.8-2.6c0.6,1.2,1.8,1.9,2.6,2.9c-0.7-0.1-1-0.8-1.5-1.1c0,0.5,0,0.5,0.2,0.8&#10;&#9;&#9;&#9;&#9;c-0.2,0-0.4,0-0.6,0c-0.1,0.3-0.1,0.4,0.4,1c-0.2-0.1-0.2-0.1-1.6-1.4c0,0.2,0.1,0.4,0.1,0.6c-0.1-0.1-0.2-0.1-0.2-0.2&#10;&#9;&#9;&#9;&#9;c0.1,0.2,0.3,0.4,0.4,0.6c-0.1,0-0.2-0.1-0.3-0.1v0c0,0-0.3,1.4-0.1,1.7c0,0-0.1,0.1-0.2,0.1c-0.1,0.7,1,1.1,0.4,1.8&#10;&#9;&#9;&#9;&#9;c-0.6,0-1.7-1.5-1.7-1.5c0-0.1,0-0.3,0-0.4c0.1-0.1,0.2-0.2,0.3-0.2c-0.1-0.9-1.2-1.4-2-1.7c0,0-0.1,0-0.1,0&#10;&#9;&#9;&#9;&#9;c1.7,2.9,1.7,2.9,3.1,5.6c-0.1-0.1-0.3-0.1-0.4-0.1c-0.2-0.4-0.3-0.5-0.8-0.8c-0.1,0-0.1,0.1-0.2,0.1c-0.1,0.6-0.7,1.1-0.5,1.8&#10;&#9;&#9;&#9;&#9;c0.2,0.9,1,1.3,1.3,2.2c-0.4,0-0.4,0-1.3-0.5c-0.1,0.1-0.2,0.3-0.2,0.4c-0.2-0.4-0.7-0.9-0.8-1.1c-0.1,0-0.1,0-0.2,0&#10;&#9;&#9;&#9;&#9;c-0.1,0.5-0.1,0.5,0.8,1.6c0.3,0,0.5,0,0.7,0.9c-0.3,0.3-0.3,0.3-0.5,0.3c0,0-0.8-0.6-1.2-1.1c-0.8-0.1-1.2-2.2-1.2-2.2&#10;&#9;&#9;&#9;&#9;c1.5-1.2-1.4-2.4-1.8-3.7c0.1,0,0.1,0,0.2,0c0.1,0.2,0.2,0.4,0.3,0.5c0.1,0,0.3,0.1,0.4,0.1c0.1,0.1,0.1,0.1,2.6,1.5&#10;&#9;&#9;&#9;&#9;c2.4-1.4-1.3-4.6-1.3-4.7c-1-0.6-1.2-2.2-2.8-2.1c-0.2-0.3-0.5-0.4-0.5-0.8c0.1,0,0.1,0,0.2,0.1c0-0.1,0.1-0.1,0.1-0.2&#10;&#9;&#9;&#9;&#9;c-0.1-0.1-0.2-0.2-0.3-0.3c0,0.1-0.1,0.2-0.2,0.2c-0.2,0-0.2,0-0.5,0.2c-0.2-0.3-0.3-0.6-0.5-0.9c0.1,0,0.3,0,0.4,0.1&#10;&#9;&#9;&#9;&#9;c0.2-0.2,0.2-0.3,0.1-0.6l0-0.1l-0.1-0.2l0,0c-0.1-0.1-0.3-0.2-0.4-0.6c0,0-0.1,0-0.1,0l0,0.1c0,0.1,0,0.3,0,0.4l0,0.1&#10;&#9;&#9;&#9;&#9;c0,0.1,0,0.3-0.1,0.4l0,0c-0.1-0.5,0.2-1-0.3-1.4c0,0.4-0.1,1.3-0.1,1.3c-0.2-0.3,0-0.6-0.2-0.9c-0.1,1.1-0.1,1.2-0.2,1.5l0,0.1&#10;&#9;&#9;&#9;&#9;c0-0.1-0.1-0.6,0-1c0.1-0.2,0.1-0.2,0-0.6l0-0.1c-0.3,0.3,0,0.7-0.2,1l0,0c-0.2,0.2-0.2,0.3-0.2,0.5c-0.1,0-0.2-0.1-0.3-0.2l0,0&#10;&#9;&#9;&#9;&#9;c0-0.1-0.1-0.2-0.1-0.3c0,0.2,0,0.2,0,0.6c0,0.1,0,0.3,0,0.4c0-0.1-0.1-0.1-0.1-0.2c-0.1,0-0.1,0-0.2,0.1c0,0.1,0,0.1,0,0.2&#10;&#9;&#9;&#9;&#9;c0-0.1,0-0.1,0-0.2c-0.3,0.2-0.2,0.6-0.3,0.9c0-0.3,0.1-0.6,0.1-0.9c-0.1,0.1-0.1,0.1-0.2,0.5c0-0.1,0-0.1,0-0.2&#10;&#9;&#9;&#9;&#9;c-0.1,0-0.1,0-0.2,0c-0.1,0.3,0.1,0.6,0.1,0.8l0,0.1c-0.1-0.2-0.1-0.2-0.2-0.6c-0.1,0.1-0.1,0.2-0.1,0.4c0,0-0.1-0.1-0.1-0.1&#10;&#9;&#9;&#9;&#9;c-0.2,0.2-0.1,0.6-0.4,0.8l0,0.1c-0.1,0.4-0.4,0.6-0.6,0.9c0.1,0,0.2,0.1,0.3,0.2c0,0.1,0,0.1,0,0.2c-0.1,0-0.1,0-0.2,0.1&#10;&#9;&#9;&#9;&#9;c0,0-0.1-0.1-0.1-0.1c0,0-0.1,0.1-0.1,0.2c0,0,0,0.1,0,0.1c0,0.2,0,0.4-0.1,0.6c-0.1,0.1-0.1,0.1-0.1,0.1s0,0,0,0c0,0,0,0,0,0&#10;&#9;&#9;&#9;&#9;c0,0,0,0,0,0c0,0,0,0,0,0s0,0,0,0c0,0,0,0,0,0c0,0,0,0,0,0c0-0.1,0-0.2,0-0.2c-0.1,0-0.1,0-0.2,0c-0.2,0.3-0.2,0.7-0.4,1&#10;&#9;&#9;&#9;&#9;c0,0,0,0,0,0c0,0,0,0,0,0c0,0,0,0,0,0c0,0,0,0,0,0c0,0,0,0,0,0c0,0,0,0,0,0c0,0,0,0,0,0c0,0,0,0,0,0c0,0,0.1,0.1,0.2,0.1&#10;&#9;&#9;&#9;&#9;c-0.1,0-0.1,0.1-0.2,0.1c0,0-0.1-0.1-0.1-0.2c-0.1,0.1-0.2,0.1-0.2,0.2l0,0.1c-0.5,0.6-0.4,1.5-1.1,1.9c0,0,0,0.1,0,0.1&#10;&#9;&#9;&#9;&#9;c0,0.1,0,0.1,0.1,0.2c0,0.1-0.1,0.2-0.2,0.3c-0.1,0-0.3,0.1-0.6,0.5c0.1,0,0.3,0,0.4-0.1c0,0.1,0,0.1,0,0.2&#10;&#9;&#9;&#9;&#9;c-0.4,0.4-0.5,0.5-0.6,1.2l-0.1,0l-0.1,0l-0.1,0.2c0,0.1-0.1,0.2-0.2,0.3c-0.2,0-0.2,0-0.5,0.4l-0.1,0l0,0.1c0.1,0,0.1,0,0.2,0&#10;&#9;&#9;&#9;&#9;c0,0.3-0.2,0.4-0.4,0.6c-0.1,0-0.1,0-0.2,0c-0.4,0.3-0.5,1-1,1.2c-0.1,0.1-0.1,0.1-0.1,0.2c0.1,0.1,0.1,0.2,0.1,0.3&#10;&#9;&#9;&#9;&#9;c0.1,0.1,0.2,0.2,0.3,0.3c-0.1,0.1-0.2,0.2-0.3,0.3c-0.1-0.1-0.1-0.1-0.2-0.5c-0.1,0-0.2,0.1-0.3,0.2l0,0.2&#10;&#9;&#9;&#9;&#9;c0,0.1-0.1,0.3-0.2,0.3c0-0.1,0-0.2,0-0.3c0,0-0.1-0.1-0.1-0.2c-0.4,0.2-0.5,0.8-1,0.9c-0.1,0.1-0.1,0.2-0.2,0.3&#10;&#9;&#9;&#9;&#9;c-0.1,0-0.3,0-0.4,0c0,0.1-0.1,0.1-0.1,0.2c0.3,0.6,0.3,0.6,0.1,0.8c-0.2,0-0.3-0.2-0.5-0.2c-0.1,0.1-0.1,0.2-0.2,0.2&#10;&#9;&#9;&#9;&#9;c0,0.1-0.1,0.3-0.2,0.3l-0.1,0c-0.2,0.1-0.2,0.1-0.3,0.5c-0.1,0-0.2-0.1-0.3-0.2c-0.1,0-0.1,0.1-0.2,0.1c0,0.3,0,0.3,0.2,0.6&#10;&#9;&#9;&#9;&#9;c-0.1,0-0.1,0-0.2,0l-0.1,0l-0.1-0.1l-0.1,0.2c-0.1,0.2,0,0.4-0.2,0.5l-0.1,0.1c0,0.1-0.1,0.3-0.1,0.4l0,0.2&#10;&#9;&#9;&#9;&#9;c0.1,0,0.1,0.1,0.2,0.1c0,0,0,0,0.5-0.2l0.1,0c0,0,0.1-0.1,0.1-0.2c0,0.1,0.1,0.1,0.1,0.2c0.1,0,0.1,0,0.2,0&#10;&#9;&#9;&#9;&#9;c0.1-0.1,0.2-0.2,0.3-0.3c0,0,0.1,0.1,0.1,0.1c-0.1,0.1-0.1,0.1-0.4,0.5c0,0.1,0,0.1,0,0.2c-0.1,0-0.1,0-0.2,0&#10;&#9;&#9;&#9;&#9;c-0.1-0.1-0.2-0.2-0.3-0.2c-0.2,0-0.2,0-0.2,0l0-0.1c-0.1,0-0.3,0-0.5,0c-0.1,0.2-0.1,0.5-0.2,0.8c0,0.1,0.1,0.1,0.1,0.2&#10;&#9;&#9;&#9;&#9;c0.1,0,0.1,0,0.2,0c0,0-0.1,0.1-0.1,0.1c-0.1,0-0.1,0-0.2,0c-0.1,0.1-0.2,0.3-0.3,0.5c0,0.1,0,0.1,0,0.2c0.1,0,0.2,0.1,0.3,0.2&#10;&#9;&#9;&#9;&#9;c-0.1,0.1-0.3,0.2-0.4,0.4l-0.1,0.1c0.9,0,0.6-1.3,1.4-1.4c0,0,0.1,0,0.1,0c0,0,0,0,0,0c0,0,0,0,0,0c0,0,0,0,0,0c0,0,0,0,0,0&#10;&#9;&#9;&#9;&#9;c0,0,0,0,0,0c0,0,0,0,0,0c0,0,0,0,0,0c0,0.1,0,0.1,0,0.2c-0.7,0.6-0.9,0.8-1.1,1.3c0,0,0.1,0.1,0.1,0.1l0.1,0l-0.1,0.2l-0.1,0.1&#10;&#9;&#9;&#9;&#9;c-0.1,0.1-0.1,0.1-0.7,0.2c-0.1,0.1-0.1,0.3-0.2,0.4c0.1,0,0.2,0.1,0.3,0.1c0.1,0,0.3-0.1,0.4-0.1c0.2,0.7-0.8,0.8-0.7,1.4&#10;&#9;&#9;&#9;&#9;c0.9,0.1,1.7,0.1,2.6,0.2c0.2-0.4,0.2-0.4,0.4-0.7c0.1,0,0.3,0.1,0.3,0.1c0.1,0,0.2-0.1,0.2-0.2c0.2-0.3,0.1-0.8,0.4-1.1&#10;&#9;&#9;&#9;&#9;c0.1,0.3,0,0.6,0.1,0.9l0,0.1c0,0.1,0.1,0.2,0,0.3l0,0.1c0,0.1,0,0.3,0,0.4c0.9,0.1,1.7,0.2,2.6,0.3c-0.9,0-1.8-0.1-2.6-0.1&#10;&#9;&#9;&#9;&#9;c-0.1,0.3-0.1,0.5-0.2,0.8l0.1,0.1c0.1,0.3-0.1,0.6,0.2,0.8c0,0.1-0.1,0.2,0,0.4c0.1,0,0.1,0,0.2-0.2c-0.1,0.3-0.1,0.6-0.1,0.9&#10;&#9;&#9;&#9;&#9;c0,0.2,0.1,0.2,0.1,0.4c0,0.2-0.1,0.3-0.1,0.5c0,0.1,0,0.1,0,0.2l0,0.1c0.1,0.1,0.2,0.3,0.4,0.5c0,0,0,0-0.2,0.5&#10;&#9;&#9;&#9;&#9;c-0.2,0-0.2,0-0.3,0.1c-0.1,0.2,0.2,0.4,0,0.5c-0.4,0.1-0.4,0.1-0.4,0.3c-0.1,0-0.6,0.2-0.6,0.2c0,0-0.1,0.1-0.1,0.2l0,0.1&#10;&#9;&#9;&#9;&#9;c-0.1,0.1-0.1,0.1-0.3,0.1c-0.1,0.1,0,0.2,0,0.3l0,0.2c0,0,0.2,0.2,0.3,0.2l0,0.1c0.1,0.1,0,0.3,0.1,0.4l0,0.1l0,0.1l0,0.1&#10;&#9;&#9;&#9;&#9;c0.2,0.1,0.5,0.2,0.6-0.4c0.1-0.8,0.4-0.8,0.4-0.8c0.1,0.1,0.1,0.1-0.1,0.4c0,0,0,0,0,0c0.1,0,0.1,0,0.2,0&#10;&#9;&#9;&#9;&#9;c0.3-0.1,0.3-0.1,0.5-0.1c0,0,0,0,0,0c0,0,0,0,0,0c0,0,0,0,0,0c0,0,0,0,0,0c0,0,0,0,0,0c0,0,0,0,0,0c0,0,0,0,0,0c0,0,0,0,0,0&#10;&#9;&#9;&#9;&#9;l0.1,0l0.1-0.1c0.1,0,0.1,0,0.3-0.3c0.1-0.3,0-0.5,0.2-0.8c0.1-0.2,0.4-0.2,0.5-0.4c0.1,0,0.1,0,0.2,0l0,0c0,0,0.1,0,0.1,0&#10;&#9;&#9;&#9;&#9;c0.3,0.1,0.3,0.1,0.7-0.7c0,0,0.2-0.4,0.2-0.4c0.1-0.3,0.1-0.7,0.2-1.1c0.1-0.3,0.3-0.5,0.4-0.9c0,0,0-0.1,0-0.1l0-0.1&#10;&#9;&#9;&#9;&#9;c0-0.5,0-0.5,0.1-0.6c0.1-0.2,0.2-0.3,0.2-0.3c0,0,0,0,0-0.1c0-0.1-0.1-0.1-0.1-0.2c0-0.1,0.1-0.2,0.1-0.3c0,0,0-0.1-0.1-0.1&#10;&#9;&#9;&#9;&#9;c0,0,0,0,0,0c0,0,0.1,0,0.1,0c0-0.1,0-0.1,0-0.2l-0.1-0.1l-0.1-0.1c0,0-0.1,0-0.1,0c0,0,0-0.1,0-0.1c0.1,0,0.1,0,0.2,0&#10;&#9;&#9;&#9;&#9;c0.2,0,0.3,0.1,0.4,0.1c0.1-0.1,0.2-0.3,0.5-0.7c0.1,0.1,0,0.2,0,0.2c0,0,0.1,0.1,0.2,0.1c0.3-0.3,0.3-0.3,0.4-0.5&#10;&#9;&#9;&#9;&#9;c0-0.1,0.1-0.1,0.1-0.2c-0.2-0.2-0.2-0.2-0.7-0.2c-0.1-0.1-0.2-0.2-0.2-0.4c-0.1,0-0.3,0.1-0.4,0.1c0,0-0.1-0.1-0.2-0.1&#10;&#9;&#9;&#9;&#9;c0,0,0.1-0.1,0.1-0.1c0,0,0,0,0,0s0,0,0,0c0,0,0,0,0,0c0,0,0,0,0,0s0,0,0,0s0,0,0,0c0,0,0,0,0,0c0,0,0,0,0,0&#10;&#9;&#9;&#9;&#9;c0.1,0,0.3-0.1,0.4-0.1c0.1,0.1,0.2,0.1,0.2,0.2l0.1,0c0,0,0.1,0.1,0.1,0.1c0.2,0,0.2,0,0.5-0.4l0.1-0.1c0.1-0.2,0.2-0.4-0.3-1.9&#10;&#9;&#9;&#9;&#9;l-0.1,0l0,0c0,0-0.1-0.1-0.2-0.1c-0.1,0-0.1,0.1-0.2,0.2l-0.1,0.1c0,0.1-0.1,0.3-0.2,0.4c-0.1,0.1-0.3,0.1-0.4,0.2&#10;&#9;&#9;&#9;&#9;c0.8-0.7,0.8-0.7,0.7-1.1c0-0.1,0-0.1,0-0.1c0,0,0,0,0,0c0,0,0,0,0,0c0,0,0,0,0,0c0,0,0,0,0,0c0,0,0,0,0,0c0,0,0,0,0,0&#10;&#9;&#9;&#9;&#9;c0,0,0,0,0,0l-0.1,0c0.1-0.6,0-1.3,0.1-1.9l0.1,0l0.1,0.1l0.1,0.1l0.2-0.1c0.1-0.2,0-0.5,0-0.7l0-0.1c0.1-0.6,0.1-0.6,0.1-0.8&#10;&#9;&#9;&#9;&#9;c0.1,0,0.1,0,0.2,0c0.1-0.1,0.2-0.3,0.2-0.7c0,0,0.1,0,0.1,0c0.1,0,0.1,0,0.2,0c0.1-0.2,0.1-0.2,0.2-0.6l0-0.1l0.1-0.1l0.1-0.1&#10;&#9;&#9;&#9;&#9;l0.1-0.1l0-0.1l0-0.1c0.2-0.2,0.5-0.4,0.7-0.6c0.1,0,0.1,0,0.2,0c0,0,0-0.1,0.1-0.2c0,0,0.1-0.1,0.1-0.2c0,0,0,0,0,0c0,0,0,0,0,0&#10;&#9;&#9;&#9;&#9;c0,0,0,0,0,0c0,0,0,0,0,0c0,0,0,0,0,0c0,0,0,0,0,0c0,0,0,0,0,0c0,0,0,0,0,0c0.3-0.4,0.3-0.8,0.6-1.2l0-0.1l0-0.1&#10;&#9;&#9;&#9;&#9;c0-1.1,0-1.1,0.2-1.4l0-0.2l-0.1-0.2l0.1-0.2l0-0.1c0,0,0-0.1,0-0.1c0,0,0.1-0.1,0.1-0.1c0,0,0,0,0,0c0,0,0,0,0,0c0,0,0,0,0,0&#10;&#9;&#9;&#9;&#9;c0,0,0,0,0,0c0,0,0,0,0,0c0,0,0,0,0,0c0,0,0,0,0,0c0,0,0,0,0,0c0.2-0.2,0.2-0.5,0.3-0.7c0.1,0,0.2-0.1,0.3-0.1c0.1,0,0.1,0,0.1,0&#10;&#9;&#9;&#9;&#9;l0.1,0c0.1,0,0.1,0,0.2,0c0.2-0.1,0.2-0.1,0.3-0.1l0,0.1l0,0l0,0.1l0,0l0,0.1c0.4,0.2,0.5,1.1,0.5,1.1l0,0.1l0,0.1l0,0.1&#10;&#9;&#9;&#9;&#9;c0,0,0,0.1,0,0.1l0,0.1c0,0.1,0,0.3-0.1,0.4c0,0,0,0-0.1,0c-0.1,0-0.1,0-0.2,0c0,0.1-0.1,0.1-0.1,0.2c-0.2,0.5-0.2,0.5-0.8,2&#10;&#9;&#9;&#9;&#9;l0,0.1c-0.3,0.8-0.4,0.9-0.7,0.9c-0.2,0.2-0.2,0.5-0.3,0.7c-0.3,0.1-0.3,0.1-0.4,0.5l0,0.1c-0.1,0.9,0.2,1.8,0.2,2.8&#10;&#9;&#9;&#9;&#9;c0,0-0.6,1.5,0.3,2.1l0.1,0l0,0.1l0.1,0.1l0.1,0.2c0,0.2,0,0.4,0,0.6c0.1,0,0.2-0.1,0.3-0.2l0-0.1c0.1,0.1,0.1,0.1,0.2,0.5&#10;&#9;&#9;&#9;&#9;c0,0,0.1,0.1,0.2,0.1c0.3-0.4,0.3-0.4,0.5-0.4c0.1,0,0.2,0,0.2,0l0.1,0c0,0,0.1,0.1,0.1,0.1c0.1-0.1,0.2-0.2,0.2-0.3l0.2,0l0.1,0&#10;&#9;&#9;&#9;&#9;l0-0.1l0.1-0.1c0.1-0.1,0.1-0.1,0.1-0.1c0,0,0,0,0,0c0,0,0,0,0,0c0,0,0,0,0,0c0,0,0,0,0,0s0,0,0,0s0,0,0,0c0,0,0,0,0,0l0.2-0.1&#10;&#9;&#9;&#9;&#9;c0.5,0,0.9-0.4,1-0.5c0.1,0,0.2,0,0.2,0l0.1,0.1c0.1,0,0.1,0.1,0.2,0.1c0.1-0.1,0.2-0.2,0.3-0.4c0.1,0,0.1-0.1,0.2-0.1&#10;&#9;&#9;&#9;&#9;c0.1,0,0.1,0,0.2,0c-0.2,0.3-0.2,0.3-0.1,0.8c0,0,0.1,0,0.1,0c0.3,0.4,0.8,0.3,1.1,0.6l0.2,0.2c-0.1,0.1-0.1,0.1-0.1,0.1&#10;&#9;&#9;&#9;&#9;c0,0,0,0,0,0c0,0,0,0,0,0c0,0,0,0,0,0c0,0,0,0,0,0c0,0,0,0,0,0c0,0,0,0,0,0c0,0,0,0,0,0c0,0-0.1,0.1-0.2,0.1c-0.1,0-0.1,0-0.1,0&#10;&#9;&#9;&#9;&#9;c0,0,0,0,0,0c0,0,0,0,0,0c0,0,0,0,0,0c0,0,0,0,0,0s0,0,0,0c0,0,0,0,0,0c0,0,0,0,0,0c-0.1,0-0.3-0.1-0.4-0.1c0,0-0.1,0.1-0.2,0.1&#10;&#9;&#9;&#9;&#9;l0,0c-0.2,0.3-0.4,0.3-0.7,0.3l0,0.1c0,0.1,0,0.3,0,0.4c-0.1,0-0.3,0.1-0.7,0.1l-0.1,0l0,0l-0.1,0c-0.4-0.2-0.4-0.2-0.5-0.3&#10;&#9;&#9;&#9;&#9;c-0.6,0.3-0.6,0.3-0.6,0.4c0,0-0.1,0-0.1,0l0-0.1c-0.2-0.1-0.3-0.1-0.5,0l0,0.1c-0.3,0.1-0.3,0.1-0.6,0.3l0,0.1l-0.1,0.1&#10;&#9;&#9;&#9;&#9;c0,0.1,0,0.1,0,0.2c0,0.1,0,0.1,0,0.2c0,0,0,0,0,0c0,0,0,0,0,0c0,0,0,0,0,0c0,0,0,0,0,0c0,0,0,0,0,0c0,0,0,0,0,0c0,0,0,0,0,0&#10;&#9;&#9;&#9;&#9;c0,0.1,0,0.1,0,0.2c0.1,0,0.1,0.1,0.2,0.1c0,0-0.1,0.1-0.1,0.2l-0.1,0.1c0.1,0.3,0.3,0.6,0.4,0.9c0.1,0,0.3-0.1,0.5-0.1&#10;&#9;&#9;&#9;&#9;c0,0.2,0,0.4,0,0.5c-0.1,0.4-0.1,0.4-0.1,0.4c0,0,0,0,0,0.1s0,0,0,0.1c0,0,0,0,0,0.1c0,0,0,0,0,0.1c0,0,0,0,0,0.1c0,0,0,0,0,0.1&#10;&#9;&#9;&#9;&#9;c0,0,0,0,0,0.1c-0.2,1-0.2,1-0.5,1.3c-0.1-0.1-0.3-0.2-0.5-0.3l-0.1-0.1l-0.3-0.5l-0.1,0l-0.1-0.1c-0.1-0.1-0.3-0.2-0.4-0.2&#10;&#9;&#9;&#9;&#9;c-0.4,0.4-0.4,0.4-1,2.1c0,0.2-0.1,0.6-0.1,0.8l0,0.1c0,0.3,0,0.7,0,1c0,0.4,0,0.4,0,0.4c0,0,0,0,0,0c0,0,0,0,0,0c0,0,0,0,0,0&#10;&#9;&#9;&#9;&#9;c0,0,0,0,0,0c0,0,0,0,0,0c0,0,0,0,0,0c0,0,0,0,0,0c-0.2,0.8-0.5,1.2-0.8,1.2l-0.1,0l-0.2,0.1l0,0.1l-0.1,0.1&#10;&#9;&#9;&#9;&#9;c-0.1,0.5-0.2,0.8-0.8,1l-0.1,0l-0.4-0.1l0-0.2c0,0,0-0.1,0-0.1c0.1-0.1,0.2-0.3,0.2-0.4c-0.7-0.5-0.8-0.5-3,1.1&#10;&#9;&#9;&#9;&#9;c-0.4,0.2-0.5,0.2-0.5,0.2l-0.2,0l-0.1,0.1l-0.4,0.3c-0.1,0.1-0.3,0.2-0.4,0.2c0,0-0.1-0.1-0.1-0.1l-0.1,0l0-0.1l0-0.1l0-0.1&#10;&#9;&#9;&#9;&#9;l-0.1-0.1c-0.3-0.4-0.5-0.8-0.9-1.2c-0.2,0.2-0.4,0.4-0.6,0.5l-0.1,0.1l-0.1,0l-0.1,0.1l0.1,0L939,596l-0.1,0l0,0.1l-0.2,0.1&#10;&#9;&#9;&#9;&#9;c-0.1,0-0.3,0.1-0.5,0.1c0.1-0.3,0.1-0.7,0-1l-0.1,0.1l0-0.2c-0.2-0.2-0.4-0.4-0.5-0.7l-0.1,0l0-0.1l0.1-0.4c0-0.1,0-0.1,0.1-1.5&#10;&#9;&#9;&#9;&#9;c0.1-0.1,0.3-0.2,0.4-0.2l0,0.1l0.1,0l0.1-0.2c0.1-0.1,0.2-0.3,0.2-0.4c0.1-0.2,0.1-0.3,0.1-0.3c0.1-0.1,0.3-0.1,0.5-0.2&#10;&#9;&#9;&#9;&#9;c0-0.1,0.1-0.3,0.2-0.5c-0.1-0.1-0.3-0.2-0.4-0.3c0.1-0.7,0.5-1.4,0.5-2.2l-0.3,0.2l-0.1,0.1c-0.2,0.2-0.5,0.5-0.7,0.6&#10;&#9;&#9;&#9;&#9;c-0.3,0-0.4,0-0.4,0l-0.1,0.1c-0.2,0.1-0.4,0.3-0.5,0.5l-0.2,0.4l-0.1,0.1c0,0.1-0.1,0.3-0.1,0.5c0,0,0,0,0,0c0,0,0,0,0,0&#10;&#9;&#9;&#9;&#9;c0,0,0,0,0,0c0,0,0,0,0,0c0,0,0,0,0,0c0,0,0,0,0,0c0,0,0,0,0,0c0,0,0,0,0,0l0,0.4c-0.1,0.3-0.2,0.7-0.2,1&#10;&#9;&#9;&#9;&#9;c0.1,0.1,0.2,0.2,0.4,0.3c0,0.3-0.1,0.6-0.2,0.8l0,0.1c0,0.2-0.1,0.5,0,0.7l0,0.4l-0.2,0.3c0,0.3,0,0.7,0,1&#10;&#9;&#9;&#9;&#9;c-0.1,0.1-0.3,0.2-0.4,0.2l0,0.1c0,0,0,0,0,0c0,0,0,0,0,0c0,0,0,0,0,0c0,0,0,0,0,0c0,0,0,0,0,0c0,0,0,0,0,0s0,0,0,0c0,0,0,0,0,0&#10;&#9;&#9;&#9;&#9;l-0.1,0.3l-0.1-0.1c-0.2-0.1-0.4-0.3-0.5-0.4c-0.2,0-0.5,0-0.6,0.1l-0.1,0.1c0,0.1,0.1,0.3,0.1,0.5c-0.1,0-0.3,0.1-0.4,0.1l0-0.1&#10;&#9;&#9;&#9;&#9;l0-0.1l-0.1,0l0-0.1l-0.1,0l-0.3,0.1c-0.6,0.3-0.6,0.3-1.1,2c-0.2,0-0.2,0-0.2,0c0,0,0,0,0,0s0,0,0,0c0,0,0,0,0,0c0,0,0,0,0,0&#10;&#9;&#9;&#9;&#9;c0,0,0,0,0,0c0,0,0,0,0,0c0,0,0,0,0,0c-0.1-0.3,0-0.7,0.1-0.9c-0.1,0-0.3,0.1-0.5,0.1c-0.1,0.1-0.2,0.3-0.2,0.4l-0.1,0.1&#10;&#9;&#9;&#9;&#9;c-0.2,0.4-0.4,0.8-0.5,1.3c0.1,0,0.1,0,0.1,0c0,0,0,0,0,0c0,0,0,0,0,0c0,0,0,0,0,0c0,0,0,0,0,0c0,0,0,0,0,0c0,0,0,0,0,0&#10;&#9;&#9;&#9;&#9;c0,0,0,0,0,0c-0.4,0.5-1,0.8-1.4,1.3c-2.5-0.4-2.5,3.1-4.7,3.1c-0.2-0.2-0.4-0.5-0.5-0.8c-0.2,0-0.4,0-0.5,0&#10;&#9;&#9;&#9;&#9;c-0.1,1.8-0.1,1.8-0.3,2.1c-0.9-0.1-1.9-0.1-2.8-0.3c-0.1,0.1-0.2,0.2-0.3,0.4c0.1,0.1,0.2,0.3,0.3,0.4c-0.1,0.1-0.3,0.2-0.4,0.3&#10;&#9;&#9;&#9;&#9;c0.3,0.6,0.3,0.7,1.6,1.2c0.1,0.3,0.4,0.6,0.7,0.7c-1.4,2.1,1.5,5-1.2,6.9c-2.9,2-5.6-2.2-8.5-0.2c0.1,3-1.9,5.3-2.4,8&#10;&#9;&#9;&#9;&#9;c0.6,0.7,0.6,0.7-0.2,2.9c0.8-0.2,1.6,0.1,2.5,0c0.1,0.1,0.2,0.2,0.4,0.3c0,1.2,0,1.2,0.4,1.7c1.6,0.1,3.1-0.6,4.7-0.8&#10;&#9;&#9;&#9;&#9;c0.4-0.5,0.7-1,3.1-2.9c-1.2-3.3,3.8-3.4,4.6-6c1.1-2.4,1.1-2.4,1.5-2.4c1,0.5,2.1,0.9,2.1,0.9c0.8-0.4,1.2-1.3,2.2-1.3&#10;&#9;&#9;&#9;&#9;c1.5-1.5,1.6-1.4,3.2,2.7c0.1,0,0.3,0.1,0.5,0.1c0.1,0.2,0.1,0.4,0.2,0.5l0.1,0.2c0.2,0.2,0.4,0.5,0.5,0.7l0-0.1&#10;&#9;&#9;&#9;&#9;c0.9,1.1,2.5,1.5,3,2.9c0.9,0.4,1.1,0.4,1,2.5c-0.1,0.1-0.1,0.1-0.5,1.2c0,0.1,0,0.3,0,0.5c0.1,0,0.3-0.1,0.5-0.1&#10;&#9;&#9;&#9;&#9;c0.4-1,1.4-2,1.4-2c0-0.2,0-0.4,0.1-0.5c-0.7-0.9-1-1.2,0.1-2.1c0.6,0.3,0.9,0.9,1.4,1.2c0.1-0.1,0.2-0.3,0.2-0.5&#10;&#9;&#9;&#9;&#9;c-0.5-1.4-2.2-1.5-2.8-2.6c0.1-0.1,0.2-0.3,0.2-0.4c-0.6-0.5-0.7-0.5-1.3-0.3c-4.4-5.3-2.2-6.6-1.3-7.1c0.1,0.1,0.1,0.1,0.3,1.4&#10;&#9;&#9;&#9;&#9;c0.3-0.1,0.6-0.3,0.8-0.5c1.6,1.8,2.3,4.2,4.5,5.4c1.5,0.9,0.2,2.5,0.6,3.7c0.1,0.2,0.2,0.7,1.8,2.7c0.4,1,0.4,1,0.5,1.1l0.1,0&#10;&#9;&#9;&#9;&#9;c1-0.2,1-0.2,3,1.2c0.1-0.1,0.2-0.3,0.2-0.5c-0.2-0.4-0.3-0.8-1.3-1.4c0.1-0.1,0.1-0.3,0.2-0.5c-0.1-0.1-0.2-0.3-0.2-0.4&#10;&#9;&#9;&#9;&#9;c0.1-0.1,0.2-0.3,0.2-0.4c-0.5-1.1-0.2-1.7,0-1.9c0.2,0.2,0.3,0.6,0.4,0.8c0.3,0,0.6-0.2,0.8-0.4c-0.1-0.1-0.2-0.3-0.3-0.4&#10;&#9;&#9;&#9;&#9;c1.5-1.9,3.1-0.3,3.1-0.3c-0.1,0.3-0.2,0.7-0.3,1c1.9-1.7,1.9-1.7,3.4-1.8c0-0.1-0.1-0.3-0.1-0.5c-0.4-0.2-0.4-0.2-1.3-2&#10;&#9;&#9;&#9;&#9;c-0.1-0.1-0.1,0-0.1,0c1-1.4,0.5-3.2,1.4-4.6c0.1,0,0.3,0,0.5,0c1.4-3.3,1.4-3.3,2.4-3.6c0.2,0.2,0.3,0.6,0.3,0.9&#10;&#9;&#9;&#9;&#9;c0.6,0.4,1.2,0.1,1.8,0.4c0.1-0.1,0.2-0.3,0.3-0.4c0.2,0,0.4,0,0.5,0c0.1,0.1,0.2,0.3,0.4,0.4c0.2-0.2,0.4-0.6,0.6-0.9&#10;&#9;&#9;&#9;&#9;c0.1,0,0.3,0,0.5,0c0.6-0.7,1.7-2,3.4-1.9c-0.1,0.3-0.2,0.7-0.3,0.9c-0.2,0-0.4,0.1-0.5,0.2c0.1,0.3,0.3,0.7,0.4,0.9&#10;&#9;&#9;&#9;&#9;c-0.1,0.3-0.1,0.3-0.1,0.3c0,0,0,0,0,0c0,0,0,0,0,0c0,0,0,0,0,0c0,0,0,0,0,0c0,0,0,0,0,0c0,0,0,0,0,0c0,0,0,0,0,0&#10;&#9;&#9;&#9;&#9;c-0.8,1.3-0.8,1.3-1.4,1.4c0.1,0.4,0.1,0.4,0.6,1.3c1.8-0.2,6.1,4.8,5.6,5.5c-1.4,2-5.3,0.9-5.3,0.8c0,0,0,0,0,0&#10;&#9;&#9;&#9;&#9;c-0.8-0.9-1.4-0.8-1.7-0.8c-0.2-0.3-0.5-0.5-0.8-0.7c-4.1,1.5-4.1,1.5-4.4,2c-1.4,0.2-1.4,0.2-2-0.1c-0.1,0.1-0.3,0.2-0.4,0.3&#10;&#9;&#9;&#9;&#9;c0.1,0.1,0.3,0.2,0.5,0.3c-1.1,1.3-3.1,0.7-4.2,2c0.1,0.1,0.2,0.3,0.2,0.4c0.2,0,0.4,0,0.5,0c0.1,1.2,0.1,1.2,0.1,1.5&#10;&#9;&#9;&#9;&#9;c-0.1,0-0.1,0-0.2,0l-0.1,0.4l-0.2,0.1c0,0.1,0.1,0.3,0.1,0.5c0.3,0,0.3,0,0.3,0c0,0,0,0,0,0c0,0,0,0,0,0c0,0,0,0,0,0&#10;&#9;&#9;&#9;&#9;c0,0,0,0,0,0c0,0,0,0,0,0c0,0,0,0,0,0c0,0,0,0,0,0c0.1,0.1,0.3,0.2,0.4,0.3c0.1,0.5,0.4,0.9,0.4,1.5c0.3,0.1,0.7,0.1,1,0.1&#10;&#9;&#9;&#9;&#9;c-0.1,0.1-0.3,0.2-0.4,0.3c0.2,0.1,0.4,0.3,0.6,0.3c0.1,0,0.3-0.1,0.4-0.2c1.7,1.3,1.7,1.3,2.6,0.5c0-0.2,0-0.4,0-0.5&#10;&#9;&#9;&#9;&#9;c0.1-0.1,0.3-0.2,0.4-0.2c0.3,0.1,0.7,0.2,0.9,0.4c0.6,0.3,0.9,1,1.6,1c1.1,0,1.7-1.8,3-1.1c0.3-0.1,0.6-0.3,0.9-0.5&#10;&#9;&#9;&#9;&#9;c0,0.1,0.1,0.3,0.1,0.5c-1.7,3.1,1.6,8.6-3.2,10c-0.6-0.3-1.3-0.3-1.8-0.8c-2.1,0.1-2.1,0.1-2.1,0.1c-0.3,0.1-0.8,0.3-1.1,0.5&#10;&#9;&#9;&#9;&#9;c-1.4,1.1-8.4-1.8-8.4-1.8c-2.5-1.6-2.7-1.7-4.2-0.2c-0.9,1,0.1,3.1-1.6,3.5c-0.1-0.1-0.3-0.2-0.5-0.3c-0.1-0.1-0.3-0.3-0.4-0.4&#10;&#9;&#9;&#9;&#9;c-1.3-1-3-1.5-4-2.9c-1.3-1.8-4.5,0-5.3-2.6c-0.4,0-0.4,0-1.3-0.6c0.1-0.3,0.1-0.3,0.2-0.3c0,0,0,0,0,0s0,0,0,0c0,0,0,0,0,0&#10;&#9;&#9;&#9;&#9;s0,0,0,0c0,0,0,0,0,0c0,0,0,0,0,0c0,0,0,0,0,0c1.6-2.1,1.6-2.1,1-3.7c0.3-0.2,0.6-0.5,0.8-0.7c0-0.1,0-0.3,0-0.5&#10;&#9;&#9;&#9;&#9;c-0.1,0.1-0.3,0.1-0.5,0.2c-0.2-0.2-0.4-0.6-0.5-0.9c-1.2-0.3-2.3,0.8-3.5,0.2c-0.5,0.2-0.5,0.2-1.4-0.1&#10;&#9;&#9;&#9;&#9;c-2.3,1.4-5.4-1.3-7.4,1.5c-1.3-0.1-2.2,1.1-3.4,1c0,0-2.7-0.5-3.4-1.7c-1,0.5-4,3.5-4.9,4.5c-0.5,0.5-0.7,1.2-1.1,1.8&#10;&#9;&#9;&#9;&#9;c-0.1,0.1-0.2,0.3-0.3,0.4c-0.8,1-0.2,2.4-1,3.4c-1.2,1.3-3.3,1.2-4.5,2.6l-6.5,9.7c1.3,1.6,0.6,2.2,0.2,2.6&#10;&#9;&#9;&#9;&#9;c0.3,1.3,0.3,1.3,0.2,2.8c0.1,0.2,0.1,0.3,0.2,0.5c-0.1,0-0.1,0-0.2,0c-0.1,0.4-1.3,3.3-2.1,4c0.2,1.9,0.2,1.9,0.2,4.1&#10;&#9;&#9;&#9;&#9;c0.6,0.2,1,0.9,1.7,1c0,0.5,0.3,1,0.3,1.5c0.2,0,0.4-0.1,0.5-0.1c0,0.1,0,0.3,0,0.4l2.1,4.5c0,0.3,0,0.7-0.2,0.9&#10;&#9;&#9;&#9;&#9;c1,0.2,1,0.2,1.3,0.6c2.3,1.3,3.1,4.4,5.8,5.2c1.5,0.5,2.5-1.1,3.8-1.1c1.3,0,2.1,1.3,3.4,1.2c0.6,0,0.9-0.6,1.5-0.6&#10;&#9;&#9;&#9;&#9;c2-0.2,3.6-1.7,5.7-1.3c1.9,0.4,2.6,0.5,3,2.6c0.4,1.8,2.5,0.6,3.7,1.1c0.1-0.1,0.2-0.3,0.4-0.4c0.2,0,0.2,0,0.2,0c0,0,0,0,0,0&#10;&#9;&#9;&#9;&#9;c0,0,0,0,0,0c0,0,0,0,0,0c0,0,0,0,0,0c0,0,0,0,0,0c0,0,0,0,0,0c0,0,0,0,0,0c0.6,0.3,1,0.9,1.7,1.1c-0.2,1.8,0.1,3.6-0.3,5.4&#10;&#9;&#9;&#9;&#9;c-0.7,1.5-0.7,1.5-1,1.8c1.4,3.6,4.8,5.9,6,9.6l1.4,5.8c-0.2,2-2,3.3-2.4,5.3c-0.7,2.9-0.7,2.9,1.9,6.8c1.1,1.6,1.9,2.9,2,3&#10;&#9;&#9;&#9;&#9;c0.9,1.8,0.5,3.9,1.3,5.7c1.2,2.5,3.8,3.9,4.5,6.7c0,0.2,0.1,0.4,0.1,0.5c-0.1,0.1-0.2,0.3-0.3,0.4c0.3,0.6,0.3,0.7,0.9,1.3&#10;&#9;&#9;&#9;&#9;c0,0.2-0.1,0.4-0.1,0.5c7.5-0.1,7.5-0.1,8.5,0c0.1-0.1,0.3-0.2,0.4-0.3c1,0.1,11.7-6.4,10-9.9c0.7-1.7,2.8-1.2,3.8-2.5&#10;&#9;&#9;&#9;&#9;c1.1-1.4-0.2-2.8-0.1-4.2c-0.4-0.4-0.6-0.6-0.5-1.4c0.1,0,5.8-3,8.7-6.4c0-0.2-0.1-0.3-0.1-0.5l0.7-5.6c0.5-1.9-2.1-3-1.4-5&#10;&#9;&#9;&#9;&#9;c0-0.2,0-0.4,0-0.6c-1.5-1-1.5-1,2.4-7.6c3.3-0.7,14.2-13.1,14.3-21.5c0-0.2-0.1-0.4-0.1-0.5c-4.1-0.6-7.6,4.2-12,1.4&#10;&#9;&#9;&#9;&#9;c0.3-0.2,0.6-0.6,0.9-0.9c0,0-0.8-1.7-5.2-4.6c-0.1,0.1-0.3,0.1-0.5,0.2c-0.6-1.1-0.7-2.5-1.3-3.6c0,0,0,0,0,0c0,0,0,0,0,0&#10;&#9;&#9;&#9;&#9;c-6.5-8.8-9.9-19.8-9.9-19.9c1.1,0.9,1.4,2.4,2.4,3.5c0.5-0.7,0.5-1.7,1-2.4c0.1,0.6-0.1,1.2-0.2,1.8c0.2,0.2,0.3,0.2,0.4,0.2&#10;&#9;&#9;&#9;&#9;c4.3,5,6,11.7,11,16.2l0.2,0.2c0.3,0.3,0.7,0.8,0.9,1.4c0.3,0.9,0,1.7,0.2,2.6c0.2,0.7,0.6,1.3,0.8,2l0.3,1.3&#10;&#9;&#9;&#9;&#9;c0.5,0.2,0.5,0.2,2.7,0c0.2-1.1,1.2-1.1,2.2-1.1c0.7,0,0.8-0.7,1.3-1c0.4-0.3,0.9-0.1,1.3-0.4c0.4-0.3,0.4-0.9,0.9-1.2&#10;&#9;&#9;&#9;&#9;c0.7-0.4,1.5-0.4,2.2-0.9c1.1-0.9,1.1-0.9,1.5-0.9l0,0c0.5,0,0.4-0.4,0.3-0.4c0,0,0.2-1.5,2.3-2.2c0.8-0.3,0.9-0.3,1.2-0.2&#10;&#9;&#9;&#9;&#9;c0.1,0.1,0.2,0.1,0.4,0c0-0.6,0-0.8,0.2-1.1l0,0c0.3-0.3,0.8-0.4,1.1-0.7c0.2-0.2,0.3-0.5,0.3-0.7c0.3-1,0.5-1.1,1-1&#10;&#9;&#9;&#9;&#9;c0.3,0,0.4,0,0.4-0.2c0.4-0.6-0.3-1.1-0.2-1.7c0.1-0.5,0.3-0.6,0.7-0.6c0.1,0,0.3,0,0.4-0.3c0,0,0.9-2.2,1-2.7v0&#10;&#9;&#9;&#9;&#9;c0-0.4-0.8-1.4-1.5-2.1c-0.9-0.9-2.3-0.2-3.2-1.2c-0.3-0.3-0.3-0.6-0.5-1.7c-0.2-1.1-0.3-1.1-0.5-1c0,0-1.3,1.6-1.6,3&#10;&#9;&#9;&#9;&#9;c-0.1,0.3-0.1,0.4-0.2,0.5c-0.6,0.5-1.2,0-1.9,0.1c-0.5,0.1-0.9,0.4-1.3,0.6v0c-0.2,0-0.4,0.1-0.5,0.1c-0.1-0.1-0.3-0.2-0.4-0.3&#10;&#9;&#9;&#9;&#9;c-0.4-2.8-0.4-2.8-0.6-3c-0.3,0.4-0.3,0.4-0.4,2c-0.8-0.5-1.1-1.8-1.1-2.2c-0.1-0.7-3.8-4.6-3.8-4.6c0.1-0.1,0.3-0.2,0.4-0.2&#10;&#9;&#9;&#9;&#9;c0-0.2-0.1-0.4-0.1-0.5c0.2-0.1,0.4-0.2,0.5-0.2c0.1-0.3,0.2-0.7,0.3-1c0.3,0.2,0.6,0.5,0.8,0.8c0.3,0,0.7,0,1,0&#10;&#9;&#9;&#9;&#9;c1.1,1.2,1.7,2.8,3,3.8c0-0.1,0.1,0.1,0.2,0.1c0.6,0.2,2.8,0.9,2.9,0.9c0.1,0,0.3,0.1,0.5,0.1c0.1,0,0.3,0.1,0.4,0.1&#10;&#9;&#9;&#9;&#9;c1.1,0.1,1.3-1.5,2.4-1.4c0.5,0,0.5,0,1.3,1.7c0,0.1,0,0.1,4.9,0.7c2.3,0.3,4.1-1.9,6.4-1.2c2,0.5,2.9,3.4,5.5,2.7&#10;&#9;&#9;&#9;&#9;c-0.1,0.9-0.3,1-1.4,1.4c0.2,1.5,2.4,2.7,3,2.2c0.8-0.7,0.5-1.7,0.9-2.5c0.8,2.2,0.9,4.6,1.7,6.9c1.4,4,3.1,7.5,5.6,11.3&#10;&#9;&#9;&#9;&#9;c1.2,1.7,1.4,2.1,2.1,0.4c0.1-0.2,0.2-0.4,0.2-0.5c0.5-1.1,1.4-2.1,1.4-3.4c0.1-2.2-1.3-4.1-1.4-6.3c0.3-0.1,0.7-0.2,1-0.3&#10;&#9;&#9;&#9;&#9;c0.5-1.2,1-2.4,1.6-3.6c0.1-0.1,0.1-0.3,0.2-0.5c-0.8,0.3-1.7,0.5-2.6,0.8c0.9-0.3,1.7-0.5,2.6-0.8c1-2.2,1.5-3.3,2.6-5.1&#10;&#9;&#9;&#9;&#9;c-0.2-0.6-0.2-0.6,0.5-3.4c0.1,0.2,0.2,0.5,0.3,0.8c0.7-0.5,0.7-0.5,1.2-0.6c0-0.1,0.1-0.3,0.1-0.5c0.1,0,0.3-0.1,0.5-0.1&#10;&#9;&#9;&#9;&#9;c0-0.7,0-0.7-0.3-1.6c4.2,4.6,4.2,4.6,4.8,6.7c2.5-0.9,4.7-2,6.6-3.1c-1.9,1.1-4.1,2.3-6.6,3.3c0.4,1.2,0.4,1.2,0.3,1.9l0.5,0.6&#10;&#9;&#9;&#9;&#9;c1.1-0.6,1.3-1.2,1-3c1.3,1.2,1.3,1.2,2.8,8c0.1,0,0.2,0,0.3,0c0.3,1.5-0.4,2.9,0,4.4c0,0.2,0.1,0.4,0.1,0.5c0.2,0.5,0.8,1,1,1.5&#10;&#9;&#9;&#9;&#9;c0.7,1.7,1,3.5,1.6,5.3c0.7,2,1.7,1.6,1.8,1.6c0-0.5-0.2-4.6-1.5-6.7c0,0-0.1,0-0.1,0c-0.3-0.5-0.3-0.5-0.3-0.5&#10;&#9;&#9;&#9;&#9;c-0.4,0.1-0.5,0.2-0.7-0.1c-0.1-0.1-0.1-0.2-0.1-0.3c-0.2-0.6-0.3-1.2-0.4-1.7c-0.2-0.5-0.7-0.8-0.8-1.3c-0.5-2,0.2-4-0.2-6&#10;&#9;&#9;&#9;&#9;c0.2-0.1,0.3-0.1,0.4-0.2c0,0,0.1,0,0.1,0c0.1,0.4,0.1,0.7,0.3,1.1c0.8,0,1.3-0.1,1.7,1.9c0.1-0.1,0.2-0.2,0.2-0.3&#10;&#9;&#9;&#9;&#9;c0.1,0.1,0.1,0.1,0.1,0.8c0.6,0,0.6,0,0.8,0.1c0,0,0.1,0,0.1,0c0.1,0.5,0.2,2.5,0.2,2.5c0.3-0.4,0.8-2.7,0.8-3&#10;&#9;&#9;&#9;&#9;c0-0.3,0.2-0.6,0.3-0.7c0-0.4,0-0.6,0.3-1c0.4-0.7,0.6-1.3,0.3-3c0,0-0.5-3.2-1-4c-1.8-2.6-1.8-2.6-1.9-2.6c0,0,0,0,0,0&#10;&#9;&#9;&#9;&#9;c0,0,0,0,0,0c-0.8-1.8-2.6-6.2-0.2-7c0.1,0.1,0.1,0.1,0.9,1.5c0.3-1-0.1-2.1,0.4-3.1l0.1,0c0.2-0.6,0.2-0.8,0-1.3&#10;&#9;&#9;&#9;&#9;c0.1,0.1,0.2,0.2,0.4,0.3c0-0.3-0.1-0.7-0.2-0.9c0.1,0.1,0.2,0.2,0.2,0.3c1.5-1.9,0.5-6,0.5-6.1l-0.1-0.2l0-0.1l-0.1-0.4l0-0.1&#10;&#9;&#9;&#9;&#9;c-0.3-1.1-0.3-1.1-0.6-1.6c-0.1-0.4-0.1-0.4-0.1-0.4c0,0,0,0,0,0c0,0,0,0,0,0c0,0,0,0,0,0c0,0,0,0,0,0c0,0,0,0,0,0c0,0,0,0,0,0&#10;&#9;&#9;&#9;&#9;c0,0,0,0,0,0l0.1,0.1l0.1,0.2c0-0.4-0.1-0.7-0.2-1.1l0-0.3c-0.1-0.5-0.3-0.9-0.4-1.4l0-0.1c-0.1-0.6-0.5-1.2-0.5-1.8&#10;&#9;&#9;&#9;&#9;c-0.1-0.2-0.1-0.3-0.1-0.3c-0.1-0.1-0.1-0.2-0.1-0.3c0,0,0,0.1,0,0.1c0-0.1,0-0.2-0.1-0.2c0-0.1-0.1-0.1-0.1-0.1v0l0,0.1&#10;&#9;&#9;&#9;&#9;c-0.1-0.1-0.2-0.3-0.2-0.4c-0.1,0-0.2,0-0.3,0c0,0,0,0,0,0c0,0,0,0,0,0c0,0,0,0,0,0c0,0,0,0,0,0c0,0,0,0,0,0c0,0,0,0,0,0&#10;&#9;&#9;&#9;&#9;c0,0,0,0,0,0c0,0,0,0,0,0c-0.1-0.5-0.1-0.6-0.2-1.3c0-0.2,0-0.2,0-0.3l0,0c-0.1-0.1-0.1-0.2-0.2-0.2c-0.3-0.3-0.5-0.7-0.9-0.9&#10;&#9;&#9;&#9;&#9;l-0.1-0.2c0.1,0.1,0.3,0.2,0.4,0.2l0,0l0,0c0-0.2-0.1-0.5-0.2-0.8c0.1,0.3,0.3,0.5,0.4,0.8c0,0,0,0,0,0.1l0-0.2l-0.1-0.2&#10;&#9;&#9;&#9;&#9;c0-0.1-0.1-0.2-0.1-0.3c0-0.1-0.1-0.2-0.2-0.3c0,0,0,0,0,0v0l0,0c-0.1-0.1-0.3-0.3-0.4-0.4c-0.7-0.7-1.1-1.6-1.7-2.4l-0.1,0l0,0&#10;&#9;&#9;&#9;&#9;l-0.4-0.2l-0.3-0.5l-0.1-0.2c-0.1-0.2-0.3-0.8-0.7-1.9c0-0.2-0.1-0.5-0.2-0.6l-0.1-0.2l0.1-0.2l0,0l-0.1-0.4&#10;&#9;&#9;&#9;&#9;c-0.2-0.6-0.4-0.8-0.5-1.1c-0.1,0-0.3-0.1-0.4-0.1c-0.1,0.5-0.1,0.5,0.1,1.2c0,0.1-0.1,0.1-0.1,0.2l0,0c-0.2-0.2-0.4-0.5-0.6-0.8&#10;&#9;&#9;&#9;&#9;c-0.2-0.2-0.4-0.4-0.6-0.5l-0.1-0.1l-0.1-0.1c-0.4-0.2-0.5-0.4-1-1.4l0.1,0.1l0,0c0.1-0.4,0.1-0.4-0.1-1.1l-0.1-0.4&#10;&#9;&#9;&#9;&#9;c-0.2-0.6-0.3-1.2-0.5-1.7c-0.2-0.4-0.2-0.8-0.4-1.1l0,0c0.3,0.2,0.3,0.2,0.5,0.6c0.2,0.4,0.2,0.4,0.4,0.8&#10;&#9;&#9;&#9;&#9;c0.5,0.7,0.9,1.3,1.3,1.9c-0.1-0.5-0.5-2.4-0.5-2.4c1.1,0.9,1.1,0.9,1.5,1.8c0.5,1,0.5,1,0.7,1.1l0.1,0l0.1,0.2&#10;&#9;&#9;&#9;&#9;c0,0.1,0.1,0.1,0.1,0.2c0-0.2-0.1-0.4-0.2-0.6l0.1,0l0,0l0.1,0.1l0.1,0l0.2,0.2c0.5,0.9,0.5,0.9,0.6,1.1c0.2,0.5,0.2,0.5,0.4,0.6&#10;&#9;&#9;&#9;&#9;c0.1,0.2,0.3,0.4,0.4,0.5c7.8,14.5,12.2,31,12.2,48.5c0,0,0,0,0,0c0,0,0-0.1,0-0.1c0,0-0.1,0.1-0.1,0.1c0-0.2-0.2-1.2-0.3-1.3&#10;&#9;&#9;&#9;&#9;c-0.1,0.2,0,0.5-0.1,0.8c0-0.2,0-0.4,0-0.6c-0.2,2.2-0.2,2.2-0.3,2.8c0,0.4,0.1,0.8-0.1,1.1c0-0.2,0-0.2,0-0.4&#10;&#9;&#9;&#9;&#9;c-0.4,2.5-0.9,4.4-1.5,5.7c0,0,0,0,0,0c0,0,0,0,0,0s0,0,0,0s0,0,0,0c0,0,0,0,0,0c0,0,0,0,0,0c0,0,0,0,0,0c0,0,0,0,0,0&#10;&#9;&#9;&#9;&#9;c0,0.8-0.1,1-0.2,1.1c0,0-0.1,0-0.1,0c-0.1,0-0.2,0.2-0.3,0.2c0-0.1,0-0.1-0.1-0.3c0,0-0.1,0-0.1,0c-0.1,0.2-0.4,1.2-0.4,2.1&#10;&#9;&#9;&#9;&#9;l0.1,1.4c0,0.3,0.3,0.5,0.3,0.8c0.1,0.8,0,1.6,0.1,2.4c0,0.3,0,0.3,0.1,0.4c0.1-0.3,0.5-0.4,0.6-0.7c0,0.6,0,0.6,0.1,0.8&#10;&#9;&#9;&#9;&#9;c0.4-0.2,0.3-0.8,0.7-1c0.1,0.1,0.1,0.1,0.2,0.4c0.1-0.1,0.1-0.1,0.2-0.2c0,0,0.1,0,0.1,0c0.1,0.3,0,0.6,0.1,0.8c0,0,0,0,0,0&#10;&#9;&#9;&#9;&#9;c-0.3,1.9-0.7,3.8-1.1,5.7c0,0,0,0,0,0c-0.1,0.1-0.2,0-0.2-0.5c0-0.3-0.1-0.5-0.2-0.5c-0.2,0-0.3,0.4-0.5,0.2&#10;&#9;&#9;&#9;&#9;c-0.1-0.1-0.1-0.1-0.1-0.2c-0.1,0.3-0.2,0.5-0.3,0.9c-0.8,0.5-0.8,0.5-0.9,0.4c-0.1,0-0.1-0.1-0.1-0.2c0-0.2,0-0.2-0.3-0.2&#10;&#9;&#9;&#9;&#9;c-0.2,0-0.1-0.3-0.2-0.4c0,0,0,0,0,0c-0.1,0.1-0.1,0.3-0.2,0.4c-0.1,0.1-0.3,0-0.4,0.1c-0.1,0.1-0.1,0.3-0.1,0.4&#10;&#9;&#9;&#9;&#9;c-0.1,0.5-0.3,0.8-0.5,0.9c-0.1,0.4-0.1,0.4,0,0.5c0.4-0.2,0.6-0.3,0.7-0.3c-0.1,0.2-0.1,0.4-0.2,0.6c0.4,0,0.8,0,1.2,0&#10;&#9;&#9;&#9;&#9;c0-0.2,0.1-0.4,0.1-0.4c0.1-0.1,0.2,0.1,0.2,0c0.1-0.1,0.1-0.2,0.2-0.3c0.1-0.1,0.2,0,0.3,0.2c0.2,0.2,0.2,0.2,0.6-0.3&#10;&#9;&#9;&#9;&#9;c0,0.2,0,0.2,0.1,0.2c0.1-0.1,0.1-0.2,0.2-0.2c0.1,0,0.1,0.1,0.2,0.1c0,0,0.1-0.1,0.2-0.2c0,0,0.1-0.1,0.1-0.2&#10;&#9;&#9;&#9;&#9;C1040.6,725.7,999.6,759.8,950.8,759.8z M971,566.5c0.1,0,0.2,0,0.3,0c-0.9-1.2-4.1-3.3-7.4-5.2c1,0.5,2,1,3,1.3&#10;&#9;&#9;&#9;&#9;c0-0.1,0.1-0.2,0.2-0.2c2.1,0.2,3.4,2,5.3,2.7c-0.1,0.1-0.1,0.1-0.2,0.2c-1.4-0.8-2.7-1.7-4.1-2.5c-0.1,0.1-0.1,0.2-0.2,0.2&#10;&#9;&#9;&#9;&#9;c0.4,0.5,5,4.7,5.1,4.8c-0.1,0-0.2,0.1-0.3,0.1c0,0-0.1,0-0.1,0c0,0,0,0,0,0c0,0,0,0,0,0c0,0,0,0,0,0c0,0,0,0,0,0c0,0,0,0,0,0&#10;&#9;&#9;&#9;&#9;c0,0,0,0,0,0c0,0,0,0,0,0c-0.4,0-0.4,0-1.1-0.5c0,0,0.1-0.1,0.1-0.1c0.2,0.1,0.4,0.2,0.6,0.3C972.3,566.9,971,566.5,971,566.5z&#10;&#9;&#9;&#9;&#9; M952.8,555.1C952.7,555.1,952.7,555.1,952.8,555.1c0.5,0.1,0.9,0.1,1.4,0.2c-0.1,0-0.2,0-0.3,0c0.8,0.1,2.4,0.4,4.6,0.9&#10;&#9;&#9;&#9;&#9;c-1.7-0.3-3.9-0.8-5.6-1.1c0.1,0,0.1,0,0.2,0C953,555.1,952.9,555.1,952.8,555.1z M952.6,555c-0.1,0-0.2,0-0.3,0c0,0,0,0,0,0&#10;&#9;&#9;&#9;&#9;C952.3,555,952.4,555,952.6,555z" transform="matrix(1, 0, 0, 1, -836.3075360236373, -543.4978318716798)" style="stroke: rgb(255, 255, 255); fill: rgb(125, 113, 229); stroke-opacity: 1; fill-opacity: 1;"/></svg>